<mxfile host="app.diagrams.net" agent="Mozilla/5.0 (Macintosh; Intel Mac OS X 10_15_7) AppleWebKit/537.36 (KHTML, like Gecko) Chrome/135.0.0.0 Safari/537.36" version="26.2.15">
  <diagram name="Page-1" id="1K0xkCa9XaWmkclOvE32">
    <mxGraphModel dx="1257" dy="655" grid="1" gridSize="10" guides="1" tooltips="1" connect="1" arrows="1" fold="1" page="1" pageScale="1" pageWidth="850" pageHeight="1100" math="0" shadow="0">
      <root>
        <mxCell id="0" />
        <mxCell id="1" parent="0" />
        <mxCell id="egk-KhjPaGmCaVF-55JU-4" value="" style="rounded=0;whiteSpace=wrap;html=1;" parent="1" vertex="1">
          <mxGeometry x="180" y="150" width="470" height="110" as="geometry" />
        </mxCell>
        <mxCell id="egk-KhjPaGmCaVF-55JU-1" value="sol" style="shape=cylinder3;whiteSpace=wrap;html=1;boundedLbl=1;backgroundOutline=1;size=15;" parent="1" vertex="1">
          <mxGeometry x="286" y="165" width="60" height="80" as="geometry" />
        </mxCell>
        <mxCell id="egk-KhjPaGmCaVF-55JU-2" value="eth" style="shape=cylinder3;whiteSpace=wrap;html=1;boundedLbl=1;backgroundOutline=1;size=15;" parent="1" vertex="1">
          <mxGeometry x="390" y="170" width="60" height="80" as="geometry" />
        </mxCell>
        <mxCell id="egk-KhjPaGmCaVF-55JU-3" value="hyperliquid" style="shape=cylinder3;whiteSpace=wrap;html=1;boundedLbl=1;backgroundOutline=1;size=15;" parent="1" vertex="1">
          <mxGeometry x="510" y="170" width="70" height="80" as="geometry" />
        </mxCell>
        <mxCell id="egk-KhjPaGmCaVF-55JU-5" value="&lt;font style=&quot;font-size: 13px;&quot;&gt;sourcing data kafka&lt;/font&gt;" style="text;html=1;align=center;verticalAlign=middle;whiteSpace=wrap;rounded=0;" parent="1" vertex="1">
          <mxGeometry x="180" y="150" width="90" height="40" as="geometry" />
        </mxCell>
        <mxCell id="egk-KhjPaGmCaVF-55JU-7" value="" style="rounded=0;whiteSpace=wrap;html=1;align=center;" parent="1" vertex="1">
          <mxGeometry x="186" y="350" width="154" height="260" as="geometry" />
        </mxCell>
        <mxCell id="egk-KhjPaGmCaVF-55JU-8" value="&lt;font style=&quot;font-size: 13px;&quot;&gt;Archive Data Writer&lt;/font&gt;" style="text;html=1;align=center;verticalAlign=middle;whiteSpace=wrap;rounded=0;" parent="1" vertex="1">
          <mxGeometry x="190" y="350" width="120" height="30" as="geometry" />
        </mxCell>
        <mxCell id="egk-KhjPaGmCaVF-55JU-9" value="" style="endArrow=classic;html=1;rounded=0;entryX=1;entryY=1;entryDx=0;entryDy=0;exitX=0.4;exitY=0.981;exitDx=0;exitDy=0;exitPerimeter=0;" parent="1" source="egk-KhjPaGmCaVF-55JU-1" target="egk-KhjPaGmCaVF-55JU-8" edge="1">
          <mxGeometry width="50" height="50" relative="1" as="geometry">
            <mxPoint x="310" y="250" as="sourcePoint" />
            <mxPoint x="277" y="350" as="targetPoint" />
          </mxGeometry>
        </mxCell>
        <mxCell id="egk-KhjPaGmCaVF-55JU-11" value="&lt;font style=&quot;font-size: 13px;&quot;&gt;temp storage&lt;/font&gt;" style="shape=cylinder3;whiteSpace=wrap;html=1;boundedLbl=1;backgroundOutline=1;size=15;" parent="1" vertex="1">
          <mxGeometry x="10" y="360" width="80" height="140" as="geometry" />
        </mxCell>
        <mxCell id="egk-KhjPaGmCaVF-55JU-12" value="" style="endArrow=classic;html=1;rounded=0;exitX=-0.014;exitY=0.109;exitDx=0;exitDy=0;exitPerimeter=0;entryX=1.025;entryY=0.229;entryDx=0;entryDy=0;entryPerimeter=0;" parent="1" source="egk-KhjPaGmCaVF-55JU-14" target="egk-KhjPaGmCaVF-55JU-11" edge="1">
          <mxGeometry width="50" height="50" relative="1" as="geometry">
            <mxPoint x="70" y="310" as="sourcePoint" />
            <mxPoint x="130" y="388" as="targetPoint" />
          </mxGeometry>
        </mxCell>
        <mxCell id="egk-KhjPaGmCaVF-55JU-13" value="" style="endArrow=classic;html=1;rounded=0;exitX=1;exitY=0;exitDx=0;exitDy=97.5;exitPerimeter=0;entryX=-0.014;entryY=0.7;entryDx=0;entryDy=0;entryPerimeter=0;" parent="1" source="egk-KhjPaGmCaVF-55JU-11" target="egk-KhjPaGmCaVF-55JU-14" edge="1">
          <mxGeometry width="50" height="50" relative="1" as="geometry">
            <mxPoint x="140" y="490" as="sourcePoint" />
            <mxPoint x="190" y="440" as="targetPoint" />
          </mxGeometry>
        </mxCell>
        <mxCell id="egk-KhjPaGmCaVF-55JU-14" value="Consumer" style="rounded=0;whiteSpace=wrap;html=1;" parent="1" vertex="1">
          <mxGeometry x="270" y="380" width="70" height="110" as="geometry" />
        </mxCell>
        <mxCell id="egk-KhjPaGmCaVF-55JU-32" style="edgeStyle=orthogonalEdgeStyle;rounded=0;orthogonalLoop=1;jettySize=auto;html=1;exitX=0.5;exitY=0;exitDx=0;exitDy=0;entryX=1;entryY=0.75;entryDx=0;entryDy=0;" parent="1" source="egk-KhjPaGmCaVF-55JU-15" target="egk-KhjPaGmCaVF-55JU-15" edge="1">
          <mxGeometry relative="1" as="geometry" />
        </mxCell>
        <mxCell id="egk-KhjPaGmCaVF-55JU-15" value="Data Merger" style="rounded=0;whiteSpace=wrap;html=1;" parent="1" vertex="1">
          <mxGeometry x="196" y="540" width="120" height="60" as="geometry" />
        </mxCell>
        <mxCell id="egk-KhjPaGmCaVF-55JU-17" value="" style="endArrow=classic;html=1;rounded=0;entryX=0;entryY=0.25;entryDx=0;entryDy=0;" parent="1" target="egk-KhjPaGmCaVF-55JU-15" edge="1">
          <mxGeometry width="50" height="50" relative="1" as="geometry">
            <mxPoint x="60" y="500" as="sourcePoint" />
            <mxPoint x="120" y="570" as="targetPoint" />
          </mxGeometry>
        </mxCell>
        <mxCell id="egk-KhjPaGmCaVF-55JU-18" value="1.1 batch fetch messages" style="text;html=1;align=center;verticalAlign=middle;resizable=0;points=[];autosize=1;strokeColor=none;fillColor=none;" parent="1" vertex="1">
          <mxGeometry x="156" y="278" width="160" height="30" as="geometry" />
        </mxCell>
        <mxCell id="egk-KhjPaGmCaVF-55JU-20" value="" style="endArrow=classic;html=1;rounded=0;exitX=0.5;exitY=1;exitDx=0;exitDy=0;entryX=0.5;entryY=0;entryDx=0;entryDy=0;entryPerimeter=0;" parent="1" source="egk-KhjPaGmCaVF-55JU-15" target="egk-KhjPaGmCaVF-55JU-21" edge="1">
          <mxGeometry width="50" height="50" relative="1" as="geometry">
            <mxPoint x="210" y="750" as="sourcePoint" />
            <mxPoint x="256" y="700" as="targetPoint" />
          </mxGeometry>
        </mxCell>
        <mxCell id="egk-KhjPaGmCaVF-55JU-21" value="s3" style="shape=cylinder3;whiteSpace=wrap;html=1;boundedLbl=1;backgroundOutline=1;size=15;" parent="1" vertex="1">
          <mxGeometry x="226" y="680" width="60" height="80" as="geometry" />
        </mxCell>
        <mxCell id="egk-KhjPaGmCaVF-55JU-22" value="&lt;b&gt;&lt;font style=&quot;font-size: 14px;&quot;&gt;s3://{bucket}/{chain}/{blockid}/&lt;/font&gt;&lt;/b&gt;" style="text;html=1;align=center;verticalAlign=middle;resizable=0;points=[];autosize=1;strokeColor=none;fillColor=none;" parent="1" vertex="1">
          <mxGeometry x="280" y="680" width="230" height="30" as="geometry" />
        </mxCell>
        <mxCell id="egk-KhjPaGmCaVF-55JU-23" value="1.2 batch write" style="text;html=1;align=center;verticalAlign=middle;resizable=0;points=[];autosize=1;strokeColor=none;fillColor=none;" parent="1" vertex="1">
          <mxGeometry x="96" y="360" width="100" height="30" as="geometry" />
        </mxCell>
        <mxCell id="egk-KhjPaGmCaVF-55JU-24" value="1.3 batch write success" style="text;html=1;align=center;verticalAlign=middle;resizable=0;points=[];autosize=1;strokeColor=none;fillColor=none;" parent="1" vertex="1">
          <mxGeometry x="80" y="430" width="150" height="30" as="geometry" />
        </mxCell>
        <mxCell id="egk-KhjPaGmCaVF-55JU-25" value="1.4 commit offset" style="text;html=1;align=center;verticalAlign=middle;resizable=0;points=[];autosize=1;strokeColor=none;fillColor=none;" parent="1" vertex="1">
          <mxGeometry x="316" y="300" width="110" height="30" as="geometry" />
        </mxCell>
        <mxCell id="egk-KhjPaGmCaVF-55JU-26" value="" style="endArrow=classic;html=1;rounded=0;entryX=0.617;entryY=0.969;entryDx=0;entryDy=0;entryPerimeter=0;exitX=0.75;exitY=0;exitDx=0;exitDy=0;" parent="1" source="egk-KhjPaGmCaVF-55JU-14" target="egk-KhjPaGmCaVF-55JU-1" edge="1">
          <mxGeometry width="50" height="50" relative="1" as="geometry">
            <mxPoint x="270" y="490" as="sourcePoint" />
            <mxPoint x="370" y="400" as="targetPoint" />
          </mxGeometry>
        </mxCell>
        <mxCell id="egk-KhjPaGmCaVF-55JU-27" value="2.1 fetch blocks" style="text;html=1;align=center;verticalAlign=middle;whiteSpace=wrap;rounded=0;" parent="1" vertex="1">
          <mxGeometry x="80" y="490" width="130" height="30" as="geometry" />
        </mxCell>
        <mxCell id="egk-KhjPaGmCaVF-55JU-28" value="" style="endArrow=classic;html=1;rounded=0;exitX=0;exitY=0.5;exitDx=0;exitDy=0;entryX=0.325;entryY=1.011;entryDx=0;entryDy=0;entryPerimeter=0;" parent="1" source="egk-KhjPaGmCaVF-55JU-15" target="egk-KhjPaGmCaVF-55JU-11" edge="1">
          <mxGeometry width="50" height="50" relative="1" as="geometry">
            <mxPoint x="40" y="545" as="sourcePoint" />
            <mxPoint x="186" y="600" as="targetPoint" />
          </mxGeometry>
        </mxCell>
        <mxCell id="egk-KhjPaGmCaVF-55JU-29" value="2.3 replace s3 file" style="text;html=1;align=center;verticalAlign=middle;whiteSpace=wrap;rounded=0;" parent="1" vertex="1">
          <mxGeometry x="250" y="630" width="130" height="30" as="geometry" />
        </mxCell>
        <mxCell id="egk-KhjPaGmCaVF-55JU-31" value="2.4 delete" style="text;html=1;align=center;verticalAlign=middle;whiteSpace=wrap;rounded=0;" parent="1" vertex="1">
          <mxGeometry x="40" y="540" width="130" height="30" as="geometry" />
        </mxCell>
        <mxCell id="egk-KhjPaGmCaVF-55JU-33" value="2.2 dedupe" style="text;html=1;align=center;verticalAlign=middle;whiteSpace=wrap;rounded=0;" parent="1" vertex="1">
          <mxGeometry x="198" y="500" width="130" height="30" as="geometry" />
        </mxCell>
        <mxCell id="egk-KhjPaGmCaVF-55JU-34" value="" style="rounded=0;whiteSpace=wrap;html=1;" parent="1" vertex="1">
          <mxGeometry x="900" y="150" width="610" height="110" as="geometry" />
        </mxCell>
        <mxCell id="egk-KhjPaGmCaVF-55JU-35" value="sol" style="shape=cylinder3;whiteSpace=wrap;html=1;boundedLbl=1;backgroundOutline=1;size=15;" parent="1" vertex="1">
          <mxGeometry x="1015" y="166" width="60" height="80" as="geometry" />
        </mxCell>
        <mxCell id="egk-KhjPaGmCaVF-55JU-36" value="eth" style="shape=cylinder3;whiteSpace=wrap;html=1;boundedLbl=1;backgroundOutline=1;size=15;" parent="1" vertex="1">
          <mxGeometry x="1200" y="166" width="60" height="80" as="geometry" />
        </mxCell>
        <mxCell id="egk-KhjPaGmCaVF-55JU-37" value="hyperliquid" style="shape=cylinder3;whiteSpace=wrap;html=1;boundedLbl=1;backgroundOutline=1;size=15;" parent="1" vertex="1">
          <mxGeometry x="1390" y="165" width="70" height="80" as="geometry" />
        </mxCell>
        <mxCell id="egk-KhjPaGmCaVF-55JU-38" value="&lt;font style=&quot;font-size: 13px;&quot;&gt;sourcing data kafka&lt;/font&gt;" style="text;html=1;align=center;verticalAlign=middle;whiteSpace=wrap;rounded=0;" parent="1" vertex="1">
          <mxGeometry x="900" y="150" width="90" height="40" as="geometry" />
        </mxCell>
        <mxCell id="egk-KhjPaGmCaVF-55JU-40" value="" style="rounded=0;whiteSpace=wrap;html=1;" parent="1" vertex="1">
          <mxGeometry x="900" y="320" width="610" height="380" as="geometry" />
        </mxCell>
        <mxCell id="egk-KhjPaGmCaVF-55JU-41" value="&lt;font style=&quot;font-size: 14px;&quot;&gt;databrick&lt;/font&gt;" style="text;html=1;align=center;verticalAlign=middle;whiteSpace=wrap;rounded=0;" parent="1" vertex="1">
          <mxGeometry x="910" y="330" width="60" height="30" as="geometry" />
        </mxCell>
        <mxCell id="egk-KhjPaGmCaVF-55JU-43" value="s3" style="shape=cylinder3;whiteSpace=wrap;html=1;boundedLbl=1;backgroundOutline=1;size=15;" parent="1" vertex="1">
          <mxGeometry x="620" y="550" width="60" height="80" as="geometry" />
        </mxCell>
        <mxCell id="egk-KhjPaGmCaVF-55JU-44" value="" style="endArrow=classic;html=1;rounded=0;exitX=0.5;exitY=1;exitDx=0;exitDy=0;exitPerimeter=0;entryX=0.238;entryY=0.019;entryDx=0;entryDy=0;entryPerimeter=0;" parent="1" source="egk-KhjPaGmCaVF-55JU-35" target="egk-KhjPaGmCaVF-55JU-40" edge="1">
          <mxGeometry width="50" height="50" relative="1" as="geometry">
            <mxPoint x="970" y="470" as="sourcePoint" />
            <mxPoint x="1010" y="320" as="targetPoint" />
          </mxGeometry>
        </mxCell>
        <mxCell id="egk-KhjPaGmCaVF-55JU-45" value="&lt;a href=&quot;https://docs.databricks.com/aws/en/connect/streaming/kafka#configure-kafka-structured-streaming-reader&quot;&gt;kafka streaming reader&lt;/a&gt;" style="text;html=1;align=center;verticalAlign=middle;whiteSpace=wrap;rounded=0;" parent="1" vertex="1">
          <mxGeometry x="940" y="270" width="60" height="38" as="geometry" />
        </mxCell>
        <mxCell id="qdMHVs_L41wyrOa6--4B-1" value="t1" style="swimlane;fontStyle=0;childLayout=stackLayout;horizontal=1;startSize=30;horizontalStack=0;resizeParent=1;resizeParentMax=0;resizeLast=0;collapsible=1;marginBottom=0;whiteSpace=wrap;html=1;" vertex="1" parent="1">
          <mxGeometry x="980" y="330" width="140" height="90" as="geometry" />
        </mxCell>
        <mxCell id="qdMHVs_L41wyrOa6--4B-2" value="timestamp" style="text;strokeColor=none;fillColor=none;align=left;verticalAlign=middle;spacingLeft=4;spacingRight=4;overflow=hidden;points=[[0,0.5],[1,0.5]];portConstraint=eastwest;rotatable=0;whiteSpace=wrap;html=1;" vertex="1" parent="qdMHVs_L41wyrOa6--4B-1">
          <mxGeometry y="30" width="140" height="30" as="geometry" />
        </mxCell>
        <mxCell id="qdMHVs_L41wyrOa6--4B-3" value="raw" style="text;strokeColor=none;fillColor=none;align=left;verticalAlign=middle;spacingLeft=4;spacingRight=4;overflow=hidden;points=[[0,0.5],[1,0.5]];portConstraint=eastwest;rotatable=0;whiteSpace=wrap;html=1;" vertex="1" parent="qdMHVs_L41wyrOa6--4B-1">
          <mxGeometry y="60" width="140" height="30" as="geometry" />
        </mxCell>
        <mxCell id="qdMHVs_L41wyrOa6--4B-5" value="t2" style="swimlane;fontStyle=0;childLayout=stackLayout;horizontal=1;startSize=30;horizontalStack=0;resizeParent=1;resizeParentMax=0;resizeLast=0;collapsible=1;marginBottom=0;whiteSpace=wrap;html=1;" vertex="1" parent="1">
          <mxGeometry x="1160" y="330" width="140" height="90" as="geometry" />
        </mxCell>
        <mxCell id="qdMHVs_L41wyrOa6--4B-6" value="timestamp" style="text;strokeColor=none;fillColor=none;align=left;verticalAlign=middle;spacingLeft=4;spacingRight=4;overflow=hidden;points=[[0,0.5],[1,0.5]];portConstraint=eastwest;rotatable=0;whiteSpace=wrap;html=1;" vertex="1" parent="qdMHVs_L41wyrOa6--4B-5">
          <mxGeometry y="30" width="140" height="30" as="geometry" />
        </mxCell>
        <mxCell id="qdMHVs_L41wyrOa6--4B-7" value="raw" style="text;strokeColor=none;fillColor=none;align=left;verticalAlign=middle;spacingLeft=4;spacingRight=4;overflow=hidden;points=[[0,0.5],[1,0.5]];portConstraint=eastwest;rotatable=0;whiteSpace=wrap;html=1;" vertex="1" parent="qdMHVs_L41wyrOa6--4B-5">
          <mxGeometry y="60" width="140" height="30" as="geometry" />
        </mxCell>
        <mxCell id="qdMHVs_L41wyrOa6--4B-9" value="t3" style="swimlane;fontStyle=0;childLayout=stackLayout;horizontal=1;startSize=30;horizontalStack=0;resizeParent=1;resizeParentMax=0;resizeLast=0;collapsible=1;marginBottom=0;whiteSpace=wrap;html=1;" vertex="1" parent="1">
          <mxGeometry x="1355" y="330" width="140" height="90" as="geometry" />
        </mxCell>
        <mxCell id="qdMHVs_L41wyrOa6--4B-10" value="timestamp" style="text;strokeColor=none;fillColor=none;align=left;verticalAlign=middle;spacingLeft=4;spacingRight=4;overflow=hidden;points=[[0,0.5],[1,0.5]];portConstraint=eastwest;rotatable=0;whiteSpace=wrap;html=1;" vertex="1" parent="qdMHVs_L41wyrOa6--4B-9">
          <mxGeometry y="30" width="140" height="30" as="geometry" />
        </mxCell>
        <mxCell id="qdMHVs_L41wyrOa6--4B-11" value="raw" style="text;strokeColor=none;fillColor=none;align=left;verticalAlign=middle;spacingLeft=4;spacingRight=4;overflow=hidden;points=[[0,0.5],[1,0.5]];portConstraint=eastwest;rotatable=0;whiteSpace=wrap;html=1;" vertex="1" parent="qdMHVs_L41wyrOa6--4B-9">
          <mxGeometry y="60" width="140" height="30" as="geometry" />
        </mxCell>
        <mxCell id="qdMHVs_L41wyrOa6--4B-13" value="" style="endArrow=classic;html=1;rounded=0;exitX=0.5;exitY=1;exitDx=0;exitDy=0;exitPerimeter=0;entryX=0.238;entryY=0.019;entryDx=0;entryDy=0;entryPerimeter=0;" edge="1" parent="1">
          <mxGeometry width="50" height="50" relative="1" as="geometry">
            <mxPoint x="1229.5" y="246" as="sourcePoint" />
            <mxPoint x="1229.5" y="324" as="targetPoint" />
          </mxGeometry>
        </mxCell>
        <mxCell id="qdMHVs_L41wyrOa6--4B-14" value="" style="endArrow=classic;html=1;rounded=0;exitX=0.5;exitY=1;exitDx=0;exitDy=0;exitPerimeter=0;entryX=0.238;entryY=0.019;entryDx=0;entryDy=0;entryPerimeter=0;" edge="1" parent="1">
          <mxGeometry width="50" height="50" relative="1" as="geometry">
            <mxPoint x="1424.5" y="246" as="sourcePoint" />
            <mxPoint x="1424.5" y="324" as="targetPoint" />
          </mxGeometry>
        </mxCell>
        <mxCell id="qdMHVs_L41wyrOa6--4B-15" value="List" style="swimlane;fontStyle=0;childLayout=stackLayout;horizontal=1;startSize=30;horizontalStack=0;resizeParent=1;resizeParentMax=0;resizeLast=0;collapsible=1;marginBottom=0;whiteSpace=wrap;html=1;" vertex="1" parent="1">
          <mxGeometry x="1160" y="530" width="140" height="150" as="geometry" />
        </mxCell>
        <mxCell id="qdMHVs_L41wyrOa6--4B-16" value="chain" style="text;strokeColor=none;fillColor=none;align=left;verticalAlign=middle;spacingLeft=4;spacingRight=4;overflow=hidden;points=[[0,0.5],[1,0.5]];portConstraint=eastwest;rotatable=0;whiteSpace=wrap;html=1;" vertex="1" parent="qdMHVs_L41wyrOa6--4B-15">
          <mxGeometry y="30" width="140" height="30" as="geometry" />
        </mxCell>
        <mxCell id="qdMHVs_L41wyrOa6--4B-17" value="blockid" style="text;strokeColor=none;fillColor=none;align=left;verticalAlign=middle;spacingLeft=4;spacingRight=4;overflow=hidden;points=[[0,0.5],[1,0.5]];portConstraint=eastwest;rotatable=0;whiteSpace=wrap;html=1;" vertex="1" parent="qdMHVs_L41wyrOa6--4B-15">
          <mxGeometry y="60" width="140" height="30" as="geometry" />
        </mxCell>
        <mxCell id="qdMHVs_L41wyrOa6--4B-18" value="raw" style="text;strokeColor=none;fillColor=none;align=left;verticalAlign=middle;spacingLeft=4;spacingRight=4;overflow=hidden;points=[[0,0.5],[1,0.5]];portConstraint=eastwest;rotatable=0;whiteSpace=wrap;html=1;" vertex="1" parent="qdMHVs_L41wyrOa6--4B-15">
          <mxGeometry y="90" width="140" height="30" as="geometry" />
        </mxCell>
        <mxCell id="qdMHVs_L41wyrOa6--4B-28" value="partition by chain/blockid" style="text;strokeColor=none;fillColor=none;align=left;verticalAlign=middle;spacingLeft=4;spacingRight=4;overflow=hidden;points=[[0,0.5],[1,0.5]];portConstraint=eastwest;rotatable=0;whiteSpace=wrap;html=1;" vertex="1" parent="qdMHVs_L41wyrOa6--4B-15">
          <mxGeometry y="120" width="140" height="30" as="geometry" />
        </mxCell>
        <mxCell id="qdMHVs_L41wyrOa6--4B-21" value="" style="endArrow=none;html=1;rounded=0;" edge="1" parent="1">
          <mxGeometry width="50" height="50" relative="1" as="geometry">
            <mxPoint x="1075" y="434.55" as="sourcePoint" />
            <mxPoint x="1375" y="434.5" as="targetPoint" />
          </mxGeometry>
        </mxCell>
        <mxCell id="qdMHVs_L41wyrOa6--4B-22" value="" style="endArrow=classic;html=1;rounded=0;entryX=0.5;entryY=0;entryDx=0;entryDy=0;" edge="1" parent="1" target="qdMHVs_L41wyrOa6--4B-15">
          <mxGeometry width="50" height="50" relative="1" as="geometry">
            <mxPoint x="1230" y="440" as="sourcePoint" />
            <mxPoint x="660" y="420" as="targetPoint" />
          </mxGeometry>
        </mxCell>
        <mxCell id="qdMHVs_L41wyrOa6--4B-23" value="dedupe ETL JOB" style="text;html=1;align=center;verticalAlign=middle;whiteSpace=wrap;rounded=0;" vertex="1" parent="1">
          <mxGeometry x="1160" y="465" width="60" height="30" as="geometry" />
        </mxCell>
      </root>
    </mxGraphModel>
  </diagram>
</mxfile>
